<svg xmlns="http://www.w3.org/2000/svg" xml:space="preserve" style="fill-rule:evenodd;clip-rule:evenodd;stroke-linejoin:round;stroke-miterlimit:1.5" viewBox="0 0 14 14"><circle cx="7" cy="7" r="6.5" style="fill:none;stroke:#e84850;stroke-opacity:.99;stroke-width:1px"/><path d="m7 4.59-1.3-1.3a1 1 0 0 0-1.4 0l-1 1a1 1 0 0 0 0 1.42L4.58 7l-1.3 1.3a1 1 0 0 0 0 1.4l1 1a1 1 0 0 0 1.42 0L7 9.42l1.3 1.3a1 1 0 0 0 1.4 0l1-1a1 1 0 0 0 0-1.42L9.42 7l1.3-1.3a1 1 0 0 0 0-1.4l-1-1a1 1 0 0 0-1.42 0L7 4.58ZM7 6 5 4 4 5l2 2-2 2 1 1 2-2 2 2 1-1-2-2 2-2-1-1-2 2Z" style="fill:#e84850;fill-opacity:.99"/></svg>