<svg xmlns="http://www.w3.org/2000/svg" xml:space="preserve" style="fill-rule:evenodd;clip-rule:evenodd;stroke-linejoin:round;stroke-miterlimit:1.5" viewBox="0 0 15 15"><circle cx="7.5" cy="7.5" r="7" style="fill:none;stroke:#555761;stroke-opacity:.99;stroke-width:1px"/><path d="M7.5 6.5 5 4 4 5l2.5 2.5L4 10l1 1 2.5-2.5L10 11l1-1-2.5-2.5L11 5l-1-1-2.5 2.5Z" style="fill:#fff"/><path d="m7.5 5.09-1.8-1.8a1 1 0 0 0-1.4 0l-1 1a1 1 0 0 0 0 1.42L5.08 7.5l-1.8 1.8a1 1 0 0 0 0 1.4l1 1a1 1 0 0 0 1.42 0L7.5 9.92l1.8 1.8a1 1 0 0 0 1.4 0l1-1a1 1 0 0 0 0-1.42L9.92 7.5l1.8-1.8a1 1 0 0 0 0-1.4l-1-1a1 1 0 0 0-1.42 0L7.5 5.08Zm0 1.41L5 4 4 5l2.5 2.5L4 10l1 1 2.5-2.5L10 11l1-1-2.5-2.5L11 5l-1-1-2.5 2.5Z" style="fill:#333"/></svg>