<?xml version="1.0" encoding="UTF-8" standalone="no"?>
<!DOCTYPE svg PUBLIC "-//W3C//DTD SVG 1.1//EN" "http://www.w3.org/Graphics/SVG/1.1/DTD/svg11.dtd">
<svg width="100%" height="100%" viewBox="0 0 32 32" version="1.1" xmlns="http://www.w3.org/2000/svg" xmlns:xlink="http://www.w3.org/1999/xlink" xml:space="preserve" xmlns:serif="http://www.serif.com/" style="fill-rule:evenodd;clip-rule:evenodd;stroke-linecap:round;stroke-linejoin:round;stroke-miterlimit:1.5;">
    <rect x="2" y="2" width="28" height="28" style="fill:url(#_Linear1);"/>
    <clipPath id="_clip2">
        <rect x="2" y="2" width="28" height="28"/>
    </clipPath>
    <g clip-path="url(#_clip2)">
        <path d="M2,30L30,2C41.076,31.628 31.889,41.108 2,30Z" style="fill:url(#_Linear3);"/>
    </g>
    <g transform="matrix(1,0,0,1,-1,0)">
        <rect x="4" y="2" width="1" height="28" style="fill:rgb(58,58,58);fill-opacity:0.2;"/>
    </g>
    <g transform="matrix(1,0,0,1,5,0)">
        <rect x="4" y="2" width="1" height="28" style="fill:rgb(58,58,58);fill-opacity:0.2;"/>
    </g>
    <g transform="matrix(1,0,0,1,11,0)">
        <rect x="4" y="2" width="1" height="28" style="fill:rgb(58,58,58);fill-opacity:0.2;"/>
    </g>
    <g transform="matrix(1,0,0,1,17,0)">
        <rect x="4" y="2" width="1" height="28" style="fill:rgb(58,58,58);fill-opacity:0.2;"/>
    </g>
    <g transform="matrix(1,0,0,1,23,0)">
        <rect x="4" y="2" width="1" height="28" style="fill:rgb(58,58,58);fill-opacity:0.2;"/>
    </g>
    <g transform="matrix(6.12323e-17,-1,1,6.12323e-17,-1.00614e-15,32.5)">
        <rect x="4" y="2" width="1" height="28" style="fill:rgb(58,58,58);fill-opacity:0.2;"/>
    </g>
    <g transform="matrix(6.12323e-17,-1,1,6.12323e-17,-5.55112e-16,26.5)">
        <rect x="4" y="2" width="1" height="28" style="fill:rgb(58,58,58);fill-opacity:0.2;"/>
    </g>
    <g transform="matrix(6.12323e-17,-1,1,6.12323e-17,-5.55112e-17,20.5)">
        <rect x="4" y="2" width="1" height="28" style="fill:rgb(58,58,58);fill-opacity:0.2;"/>
    </g>
    <g transform="matrix(6.12323e-17,-1,1,6.12323e-17,3.33067e-16,14.5)">
        <rect x="4" y="2" width="1" height="28" style="fill:rgb(58,58,58);fill-opacity:0.2;"/>
    </g>
    <g transform="matrix(6.12323e-17,-1,1,6.12323e-17,4.3715e-16,8.5)">
        <rect x="4" y="2" width="1" height="28" style="fill:rgb(58,58,58);fill-opacity:0.2;"/>
    </g>
    <g transform="matrix(0.75,0,0,0.75,1.5,6.5)">
        <rect x="6" y="22" width="4" height="4" style="fill:rgb(92,92,92);stroke:rgb(223,223,223);stroke-width:1.33px;"/>
    </g>
    <g transform="matrix(0.75,0,0,0.75,9.76578,-1.5)">
        <rect x="6" y="22" width="4" height="4" style="fill:rgb(92,92,92);stroke:rgb(223,223,223);stroke-width:1.33px;"/>
    </g>
    <g transform="matrix(0.75,0,0,0.75,18.7658,-10.2482)">
        <rect x="6" y="22" width="4" height="4" style="fill:rgb(92,92,92);stroke:rgb(223,223,223);stroke-width:1.33px;"/>
    </g>
    <defs>
        <linearGradient id="_Linear1" x1="0" y1="0" x2="1" y2="0" gradientUnits="userSpaceOnUse" gradientTransform="matrix(10,12,-12,10,3,1)"><stop offset="0" style="stop-color:rgb(235,235,235);stop-opacity:1"/><stop offset="1" style="stop-color:rgb(163,163,163);stop-opacity:1"/></linearGradient>
        <linearGradient id="_Linear3" x1="0" y1="0" x2="1" y2="0" gradientUnits="userSpaceOnUse" gradientTransform="matrix(13.7342,11,-11,13.7342,18.2658,21)"><stop offset="0" style="stop-color:rgb(76,76,76);stop-opacity:1"/><stop offset="1" style="stop-color:rgb(35,35,35);stop-opacity:1"/></linearGradient>
    </defs>
</svg>
